<?xml version="1.0" encoding="UTF-8"?>
<svg width="45px" height="46px" viewBox="0 0 45 46" version="1.1" xmlns="http://www.w3.org/2000/svg" xmlns:xlink="http://www.w3.org/1999/xlink">
    <!-- Generator: sketchtool 48.2 (47327) - http://www.bohemiancoding.com/sketch -->
    <title>F4A7651F-E7C8-4A4B-B7E5-BF8E3278D9A3</title>
    <desc>Created with sketchtool.</desc>
    <defs></defs>
    <g id="Byko-D-ProductPage-New-3" stroke="none" stroke-width="1" fill="none" fill-rule="evenodd" transform="translate(-843.000000, -822.000000)">
        <g id="Product-info" transform="translate(829.000000, 190.000000)" fill="#009A64">
            <g id="Umhverfismerkingar" transform="translate(0.000000, 618.000000)">
                <g id="1">
                    <g id="svanurinn" transform="translate(13.972814, 14.103516)">
                        <path d="M0.340788319,23.3209557 C0.337833934,23.1680662 0.336356741,23.0144382 0.336356741,22.8600716 C0.336356741,12.6947711 7.06644596,4.11080526 16.2841274,1.38464643 L0.340788319,23.3209557 Z" id="Fill-1"></path>
                        <path d="M4.83514662,36.3711393 C4.14234332,35.4471554 3.50198036,34.4382329 2.95615771,33.4123226 L7.21711959,33.4012437 L4.83514662,36.3711393 Z" id="Fill-3"></path>
                        <path d="M8.88368822,40.5030684 C7.70784296,39.5783459 6.68562572,38.6078304 5.71732601,37.4681763 L8.7891479,33.3866933 L14.1668673,33.3866933 L8.88368822,40.5030684 Z" id="Fill-5"></path>
                        <path d="M13.5861091,43.3304888 C12.2950428,42.7565995 11.0896537,42.1036804 9.94261369,41.3037806 L15.6083857,33.4022777 L20.9011666,33.4022777 L13.5861091,43.3304888 Z" id="Fill-7"></path>
                        <path d="M19.2572728,45.0528953 C17.68554,44.8135901 16.2046544,44.4221341 14.758483,43.8704027 L22.3579,33.4022777 L27.7511299,33.4022777 L19.2572728,45.0528953 Z" id="Fill-9"></path>
                        <path d="M26.3085037,45.0088749 C25.1105006,45.2119889 23.8105711,45.2407942 22.5549575,45.2407942 C21.9537401,45.2407942 21.4034859,45.2444872 20.8140861,45.197217 L29.3950975,33.4018346 L34.8296889,33.3870626 L26.3085037,45.0088749 Z" id="Fill-11"></path>
                        <path d="M42.2428319,33.4019823 C39.3837258,38.8092456 34.3568395,42.9128865 28.357222,44.5333667 L36.4167845,33.4019823 L42.2428319,33.4019823 Z" id="Fill-13"></path>
                        <path d="M44.8242997,21.8801759 C44.7984489,21.1785095 44.7083401,20.6600149 44.6211858,19.9760747 L36.4301531,31.1237082 L38.0041018,31.1237082 L44.8242997,21.8801759 Z" id="Fill-15"></path>
                        <path d="M43.1941439,14.453812 C43.0198352,14.0224718 42.7650195,13.5349982 42.5641213,13.1169527 L29.4665936,31.1231912 L31.095937,31.1084193 L43.1941439,14.453812 Z" id="Fill-17"></path>
                        <path d="M40.1229129,8.98864275 C39.8599726,8.65553583 39.5379447,8.36822188 39.2572781,8.05136408 L22.5014831,31.1088624 L24.0591826,31.1088624 L40.1229129,8.98864275 Z" id="Fill-19"></path>
                        <path d="M35.5085327,4.73484525 C34.2233752,3.80125956 32.8998107,2.96960016 31.4270497,2.32628281 L11.3852399,29.8825711 C14.1682707,32.0887581 15.9268684,31.3390829 17.3102592,29.6809343 L35.5085327,4.73484525 Z" id="Fill-21"></path>
                        <path d="M30.301946,1.88002295 C28.8136745,1.32755294 27.182854,0.904337273 25.5623738,0.684235585 L2.4435719,32.4940997 C3.87201709,32.4778506 5.76060775,32.0945192 7.07309332,31.1520703 C7.99560006,30.4880723 8.16917019,29.5086936 10.0289556,29.5086936 L30.301946,1.88002295 Z" id="Fill-23"></path>
                        <path d="M23.9430753,0.553208606 C23.5036105,0.527357737 23.001365,0.480826172 22.5545143,0.480826172 C21.117206,0.480826172 19.7101801,0.618943674 18.3474699,0.881883947 L0.497813886,25.4416871 C0.711268208,27.3524357 1.14260843,29.1405772 1.80365209,30.8740627 L23.9430753,0.553208606 Z" id="Fill-25"></path>
                        <path d="M8.99839222,31.0660977 C8.99839222,30.6561768 9.33076054,30.3238085 9.74068147,30.3238085 C10.1506024,30.3238085 10.4829707,30.6561768 10.4829707,31.0660977 C10.4829707,31.4752801 10.1506024,31.8076484 9.74068147,31.8076484 C9.33076054,31.8076484 8.99839222,31.4752801 8.99839222,31.0660977" id="Fill-27"></path>
                    </g>
                </g>
            </g>
        </g>
    </g>
</svg>