<?xml version="1.0" standalone="no"?><svg xmlns="http://www.w3.org/2000/svg" viewBox="0 0 1440 320"><path fill="#F67147" fill-opacity="0.6" d="M0,128L18.5,106.7C36.9,85,74,43,111,26.7C147.7,11,185,21,222,48C258.5,75,295,117,332,138.7C369.2,160,406,160,443,170.7C480,181,517,203,554,192C590.8,181,628,139,665,133.3C701.5,128,738,160,775,160C812.3,160,849,128,886,96C923.1,64,960,32,997,53.3C1033.8,75,1071,149,1108,197.3C1144.6,245,1182,267,1218,245.3C1255.4,224,1292,160,1329,133.3C1366.2,107,1403,117,1422,122.7L1440,128L1440,320L1421.5,320C1403.1,320,1366,320,1329,320C1292.3,320,1255,320,1218,320C1181.5,320,1145,320,1108,320C1070.8,320,1034,320,997,320C960,320,923,320,886,320C849.2,320,812,320,775,320C738.5,320,702,320,665,320C627.7,320,591,320,554,320C516.9,320,480,320,443,320C406.2,320,369,320,332,320C295.4,320,258,320,222,320C184.6,320,148,320,111,320C73.8,320,37,320,18,320L0,320Z"></path></svg>